<?xml version="1.0" encoding="UTF-8" standalone="no"?>
<svg
   xmlns:dc="http://purl.org/dc/elements/1.1/"
   xmlns:cc="http://creativecommons.org/ns#"
   xmlns:rdf="http://www.w3.org/1999/02/22-rdf-syntax-ns#"
   xmlns:svg="http://www.w3.org/2000/svg"
   xmlns="http://www.w3.org/2000/svg"
   id="svg28"
   version="1.1"
   viewBox="0 0 210 297"
   height="297mm"
   width="210mm">
  <defs
     id="defs22" />
  <metadata
     id="metadata25">
    <rdf:RDF>
      <cc:Work
         rdf:about="">
        <dc:format>image/svg+xml</dc:format>
        <dc:type
           rdf:resource="http://purl.org/dc/dcmitype/StillImage" />
        <dc:title></dc:title>
      </cc:Work>
    </rdf:RDF>
  </metadata>
  <g
     id="layer1">
    <path
       d="m 61.127872,39.715519 c -0.802306,0.560468 -1.151329,-0.804977 -0.931535,-1.333485 0.59563,-1.432225 2.547912,-1.333004 3.598506,-0.529585 1.879267,1.437128 1.628612,4.258544 0.127635,5.863526 -2.202745,2.355376 -5.99404,1.937566 -8.128547,-0.274316 -2.844962,-2.948091 -2.252483,-7.738579 0.676266,-10.393567 3.685532,-3.341032 9.487481,-2.570539 12.658588,1.078216 3.840636,4.419132 2.890424,11.238852 -1.480167,14.923609 -5.15059,4.342359 -12.991762,3.211458 -17.188629,-1.882117 -4.84545,-5.880735 -3.53326,-14.745701 2.284068,-19.45365 6.610017,-5.349471 16.50036,-3.855597 21.71867,2.686018 5.33574,6.688824 4.486322,16.539394 -1.474229,22.544523"
       id="path30"
       style="fill:#00ffff;fill-rule:evenodd;stroke:#000000;stroke-width:0.26458332" />
    <path
       d="m 42.424568,24.661638 c -0.947626,0.922473 -1.711001,-0.822266 -1.533211,-1.575018 0.4818,-2.03991 3.106922,-2.333571 4.683247,-1.491403 2.819676,1.506441 3.101031,5.323641 1.449596,7.791475 -2.423546,3.621645 -7.570604,3.891714 -10.899703,1.407789 -4.437165,-3.31068 -4.692321,-9.828327 -1.365983,-14.007932 4.185858,-5.259606 12.091183,-5.498066 17.116161,-1.324175 6.085922,5.055141 6.30679,14.35693 1.282368,20.224389 C 47.235937,42.60136 36.532562,42.804144 29.824426,36.927324 22.079617,30.142303 21.895205,18.034088 28.625671,10.486478 36.273255,1.9104045 49.788508,1.7445465 58.174746,9.3295308 66.749703,17.085203 67.766301,30.4068 61.127874,39.715518"
       id="path32"
       style="fill:#000080;fill-rule:evenodd;stroke:#000000;stroke-width:0.26458332" />
    <path
       d="m 70.707619,28.311062 c -0.773674,0.741146 -1.380754,-0.677242 -1.231833,-1.285897 0.403564,-1.649418 2.532105,-1.870259 3.803627,-1.177769 2.274455,1.238701 2.477581,4.332875 1.123705,6.321358 -1.986867,2.918178 -6.158297,3.10352 -8.839088,1.069641 -3.573074,-2.710841 -3.737429,-7.992499 -1.015577,-11.356819 3.425172,-4.233654 9.830892,-4.375467 13.874549,-0.961513 4.89741,4.134756 5.015899,11.671648 0.907449,16.392279 -4.841666,5.563101 -13.513878,5.657833 -18.91001,0.853385 -6.230049,-5.546925 -6.300769,-15.35709 -0.799321,-21.42774 6.251095,-6.897859 17.200993,-6.9444062 23.945471,-0.745257 0.529364,0.486562 1.029145,1.005268 1.495955,1.552124"
       id="path34"
       style="fill:#0000ff;fill-rule:evenodd;stroke:#000000;stroke-width:0.26458332" />
    <path
       d="m 46.986351,47.926723 c -0.99578,0.486291 -1.146792,-1.102372 -0.808246,-1.655051 0.917437,-1.497725 3.083971,-1.044407 4.118348,0.03856 1.850259,1.937171 1.07514,5.049413 -0.885363,6.581646 -2.877116,2.248613 -7.045009,1.116442 -9.044943,-1.732168 -2.665599,-3.796749 -1.162829,-9.051766 2.578972,-11.508241 4.708674,-3.091223 11.063955,-1.211963 13.971539,3.425777 3.521474,5.616923 1.262709,13.079225 -4.272582,16.434836 -6.523148,3.954472 -15.09642,1.314472 -18.898134,-5.119386 -4.38923,-7.428143 -1.366911,-17.114899 5.966191,-21.361432 8.332336,-4.82518 19.13428,-1.419824 23.824729,6.812996 4.796001,8.418086 2.118544,19.28854 -5.602231,24.961055"
       id="path38"
       style="fill:#008080;fill-rule:evenodd;stroke:#000000;stroke-width:0.26458332" />
    <path
       d="M 72.076149,38.346982 54.776606,35.47836 48.899402,51.999912 46.281772,34.660615 28.752686,34.176502 44.434444,26.328851 39.478078,9.5081006 51.787568,21.997281 66.253451,12.085599 58.179376,27.651989 Z"
       id="path40"
       style="fill:#ff00ff;stroke-width:0.26458332" />
  </g>
</svg>
