<?xml version="1.0" encoding="UTF-8" standalone="no"?>
<svg
   xmlns:dc="http://purl.org/dc/elements/1.1/"
   xmlns:cc="http://creativecommons.org/ns#"
   xmlns:rdf="http://www.w3.org/1999/02/22-rdf-syntax-ns#"
   xmlns:svg="http://www.w3.org/2000/svg"
   xmlns="http://www.w3.org/2000/svg"
   id="svg8"
   version="1.1"
   viewBox="0 0 210 297"
   height="297mm"
   width="210mm">
  <defs
     id="defs2" />
  <metadata
     id="metadata5">
    <rdf:RDF>
      <cc:Work
         rdf:about="">
        <dc:format>image/svg+xml</dc:format>
        <dc:type
           rdf:resource="http://purl.org/dc/dcmitype/StillImage" />
        <dc:title></dc:title>
      </cc:Work>
    </rdf:RDF>
  </metadata>
  <g
     id="layer1">
    <path
       d="m 52.160715,64.922618 -11.464597,2.859067 -4.144225,11.06511 -6.26189,-10.01998 -11.804181,-0.522084 7.594537,-9.051755 -3.15116,-11.387777 10.955571,4.425688 9.856657,-6.515948 -0.823621,11.78698 z"
       id="path10"
       style="fill:#000080;stroke-width:0.26458332" />
    <path
       d="m 40.696117,67.781682 -1.680518,-6.738721 -6.503908,-2.435914 5.889596,-3.680647 0.306874,-6.938323 5.320488,4.463957 6.693566,-1.852206 -2.601353,6.439523 3.829978,5.793597 -6.928213,-0.484112 z"
       id="path12"
       style="fill:#00ffff;stroke-width:0.26458332" />
    <path
       d="m 40.69612,67.781684 0.979725,-4.506745 -3.157128,-3.362016 4.588921,-0.460887 2.221861,-4.041527 1.856384,4.221902 4.530314,0.864215 -3.441613,3.070165 0.578027,4.575641 -3.983418,-2.324434 z"
       id="path14"
       style="fill:#0000ff;stroke-width:0.26458332" />
  </g>
</svg>
