<?xml version="1.0" encoding="UTF-8" standalone="no"?>
<!-- Created with Inkscape (http://www.inkscape.org/) -->

<svg
   xmlns:dc="http://purl.org/dc/elements/1.1/"
   xmlns:cc="http://creativecommons.org/ns#"
   xmlns:rdf="http://www.w3.org/1999/02/22-rdf-syntax-ns#"
   xmlns:svg="http://www.w3.org/2000/svg"
   xmlns="http://www.w3.org/2000/svg"
   xmlns:sodipodi="http://sodipodi.sourceforge.net/DTD/sodipodi-0.dtd"
   xmlns:inkscape="http://www.inkscape.org/namespaces/inkscape"
   width="210mm"
   height="297mm"
   viewBox="0 0 210 297"
   version="1.1"
   id="svg8"
   inkscape:version="0.92.3 (2405546, 2018-03-11)"
   sodipodi:docname="55.svg">
  <defs
     id="defs2" />
  <sodipodi:namedview
     id="base"
     pagecolor="#ffffff"
     bordercolor="#666666"
     borderopacity="1.0"
     inkscape:pageopacity="0.0"
     inkscape:pageshadow="2"
     inkscape:zoom="0.35"
     inkscape:cx="400"
     inkscape:cy="560"
     inkscape:document-units="mm"
     inkscape:current-layer="layer1"
     showgrid="false"
     inkscape:window-width="1366"
     inkscape:window-height="705"
     inkscape:window-x="-8"
     inkscape:window-y="-8"
     inkscape:window-maximized="1" />
  <metadata
     id="metadata5">
    <rdf:RDF>
      <cc:Work
         rdf:about="">
        <dc:format>image/svg+xml</dc:format>
        <dc:type
           rdf:resource="http://purl.org/dc/dcmitype/StillImage" />
        <dc:title></dc:title>
      </cc:Work>
    </rdf:RDF>
  </metadata>
  <g
     inkscape:label="Layer 1"
     inkscape:groupmode="layer"
     id="layer1">
    <path
       style="fill:#ff00ff;stroke-width:0.26458332"
       id="path10"
       sodipodi:type="arc"
       sodipodi:cx="29.860117"
       sodipodi:cy="35.440475"
       sodipodi:rx="17.008928"
       sodipodi:ry="18.142857"
       sodipodi:start="0"
       sodipodi:end="6.072092"
       sodipodi:open="true"
       d="M 46.869045,35.440475 A 17.008928,18.142857 0 0 1 30.757318,53.558074 17.008928,18.142857 0 0 1 12.945841,37.35184 17.008928,18.142857 0 0 1 27.178499,17.524522 17.008928,18.142857 0 0 1 46.491488,31.63902" />
    <path
       style="fill:#0000ff;stroke-width:0.26458332"
       id="path12"
       sodipodi:type="arc"
       sodipodi:cx="58.01955"
       sodipodi:cy="43.745106"
       sodipodi:rx="11.528065"
       sodipodi:ry="12.106085"
       sodipodi:start="0"
       sodipodi:end="6.0720877"
       sodipodi:open="true"
       d="M 69.547615,43.745106 A 11.528065,12.106085 0 0 1 58.627655,55.834336 11.528065,12.106085 0 0 1 46.55564,45.020517 11.528065,12.106085 0 0 1 56.202006,31.790431 11.528065,12.106085 0 0 1 69.29171,41.208478" />
    <path
       style="fill:#00ffff;stroke-width:0.26458332"
       id="path16"
       sodipodi:type="arc"
       sodipodi:cx="46.491489"
       sodipodi:cy="31.639019"
       sodipodi:rx="8.504673"
       sodipodi:ry="10.216205"
       sodipodi:start="0"
       sodipodi:end="6.0720877"
       sodipodi:open="true"
       d="M 54.996162,31.639019 A 8.504673,10.216205 0 0 1 46.94011,41.841 a 8.504673,10.216205 0 0 1 -8.905964,-9.125674 8.504673,10.216205 0 0 1 7.116475,-11.164738 8.504673,10.216205 0 0 1 9.656751,7.947796" />
    <path
       style="fill:#00ffff;stroke-width:0.26458332"
       id="path18"
       sodipodi:type="arc"
       sodipodi:cx="142.875"
       sodipodi:cy="32.794643"
       sodipodi:rx="16.630953"
       sodipodi:ry="16.252975"
       sodipodi:start="0"
       sodipodi:end="6.0720877"
       sodipodi:open="true"
       d="M 159.50595,32.794643 A 16.630953,16.252975 0 0 1 143.75228,49.024991 16.630953,16.252975 0 0 1 126.3366,34.506942 16.630953,16.252975 0 0 1 140.25292,16.744943 16.630953,16.252975 0 0 1 159.13677,29.389104" />
    <path
       style="fill:#ff00ff;stroke-width:0.26458332"
       id="path20"
       sodipodi:type="arc"
       sodipodi:cx="157.61607"
       sodipodi:cy="50.9375"
       sodipodi:rx="17.008928"
       sodipodi:ry="15.497024"
       sodipodi:start="0"
       sodipodi:end="6.0720877"
       sodipodi:open="true"
       d="M 174.625,50.9375 A 17.008928,15.497024 0 0 1 158.51329,66.412948 17.008928,15.497024 0 0 1 140.7018,52.570157 17.008928,15.497024 0 0 1 154.9344,35.634297 17.008928,15.497024 0 0 1 174.24743,47.690358" />
    <path
       style="fill:#000080;stroke-width:0.26458332"
       id="path22"
       sodipodi:type="arc"
       sodipodi:cx="166.69209"
       sodipodi:cy="38.53973"
       sodipodi:rx="7.5553288"
       sodipodi:ry="9.1506262"
       sodipodi:start="0"
       sodipodi:end="6.0720877"
       sodipodi:open="true"
       d="m 174.24742,38.53973 a 7.5553288,9.1506262 0 0 1 -7.15678,9.137886 7.5553288,9.1506262 0 0 1 -7.91183,-8.173841 7.5553288,9.1506262 0 0 1 6.32209,-10.000225 7.5553288,9.1506262 0 0 1 8.5788,7.118819" />
    <flowRoot
       xml:space="preserve"
       id="flowRoot24"
       style="font-style:normal;font-weight:normal;font-size:64.00000081px;line-height:1.25;font-family:sans-serif;letter-spacing:0px;word-spacing:0px;fill:#000000;fill-opacity:1;stroke:none"
       transform="scale(0.26458333)"><flowRegion
         id="flowRegion26"><rect
           id="rect28"
           width="864.28326"
           height="297.22491"
           x="-61.426994"
           y="73.866257" /></flowRegion><flowPara
         id="flowPara30"
         style="-inkscape-font-specification:'Snap ITC Bold';font-family:'Snap ITC';font-weight:bold;font-style:normal;font-stretch:normal;font-variant:normal;text-anchor:middle;text-align:center">Большая книга </flowPara><flowPara
         id="flowPara32"
         style="-inkscape-font-specification:'Snap ITC Bold';font-family:'Snap ITC';font-weight:bold;font-style:normal;font-stretch:normal;font-variant:normal;text-anchor:middle;text-align:center">CSS</flowPara></flowRoot>    <flowRoot
       xml:space="preserve"
       id="flowRoot34"
       style="fill:black;fill-opacity:1;stroke:none;font-family:sans-serif;font-style:normal;font-weight:normal;font-size:40px;line-height:1.25;letter-spacing:0px;word-spacing:0px"><flowRegion
         id="flowRegion36"><rect
           id="rect38"
           width="34.285713"
           height="51.42857"
           x="397.14285"
           y="122.51968" /></flowRegion><flowPara
         id="flowPara40"></flowPara></flowRoot>  </g>
</svg>
